HIERARCHY
ROOT Hips
{
	OFFSET 0.000000 0.000000 0.000000
	CHANNELS 6 Xposition Yposition Zposition Zrotation Yrotation Xrotation 
	JOINT LHipJoint
	{
		OFFSET 0.000000 0.000000 0.000000
		CHANNELS 3 Zrotation Yrotation Xrotation
		JOINT LeftUpLeg
		{
			OFFSET 1.363060 -1.794630 0.839290
			CHANNELS 3 Zrotation Yrotation Xrotation
			JOINT LeftLeg
			{
				OFFSET 2.448110 -6.726130 0.000000
				CHANNELS 3 Zrotation Yrotation Xrotation
				JOINT LeftFoot
				{
					OFFSET 2.562200 -7.039590 0.000000
					CHANNELS 3 Zrotation Yrotation Xrotation
					JOINT LeftToeBase
					{
						OFFSET 0.157640 -0.433110 2.322550
						CHANNELS 3 Zrotation Yrotation Xrotation
						End Site
						{
							OFFSET 0.000000 0.000000 0.000000
						}
					}
				}
			}
		}
	}
	JOINT RHipJoint
	{
		OFFSET 0.000000 0.000000 0.000000
		CHANNELS 3 Zrotation Yrotation Xrotation
		JOINT RightUpLeg
		{
			OFFSET -1.305520 -1.794630 0.839290
			CHANNELS 3 Zrotation Yrotation Xrotation
			JOINT RightLeg
			{
				OFFSET -2.542530 -6.985550 0.000000
				CHANNELS 3 Zrotation Yrotation Xrotation
				JOINT RightFoot
				{
					OFFSET -2.568260 -7.056230 0.000000
					CHANNELS 3 Zrotation Yrotation Xrotation
					JOINT RightToeBase
					{
						OFFSET -0.164730 -0.452590 2.363150
						CHANNELS 3 Zrotation Yrotation Xrotation
						End Site
						{
							OFFSET 0.000000 0.000000 0.000000
						}
					}
				}
			}
		}
	}
	JOINT LowerBack
	{
		OFFSET 0.000000 0.000000 0.000000
		CHANNELS 3 Zrotation Yrotation Xrotation
		JOINT Spine
		{
			OFFSET 0.028270 2.035590 -0.193380
			CHANNELS 3 Zrotation Yrotation Xrotation
			JOINT Spine1
			{
				OFFSET 0.056720 2.048850 -0.042750
				CHANNELS 3 Zrotation Yrotation Xrotation
				JOINT Neck
				{
					OFFSET 0.000000 0.000000 0.000000
					CHANNELS 3 Zrotation Yrotation Xrotation
					JOINT Neck1
					{
						OFFSET -0.054170 1.746240 0.172020
						CHANNELS 3 Zrotation Yrotation Xrotation
						JOINT Head
						{
							OFFSET 0.104070 1.761360 -0.123970
							CHANNELS 3 Zrotation Yrotation Xrotation
							End Site
							{
								OFFSET 0.000000 0.000000 0.000000
							}
						}
					}
				}
				JOINT LeftShoulder
				{
					OFFSET 0.000000 0.000000 0.000000
					CHANNELS 3 Zrotation Yrotation Xrotation
					JOINT LeftArm
					{
						OFFSET 3.362410 1.200890 -0.311210
						CHANNELS 3 Zrotation Yrotation Xrotation
						JOINT LeftForeArm
						{
							OFFSET 4.983000 -0.000000 -0.000000
							CHANNELS 3 Zrotation Yrotation Xrotation
							JOINT LeftHand
							{
								OFFSET 3.483560 -0.000000 -0.000000
								CHANNELS 3 Zrotation Yrotation Xrotation
								JOINT LeftFingerBase
								{
									OFFSET 0.000000 0.000000 0.000000
									CHANNELS 3 Zrotation Yrotation Xrotation
									JOINT LeftHandIndex1
									{
										OFFSET 0.715260 -0.000000 -0.000000
										CHANNELS 3 Zrotation Yrotation Xrotation
										End Site
										{
											OFFSET 0.000000 0.000000 0.000000
										}
									}
								}
								JOINT LThumb
								{
									OFFSET 0.000000 0.000000 0.000000
									CHANNELS 3 Zrotation Yrotation Xrotation
									End Site
									{
										OFFSET 0.000000 0.000000 0.000000
									}
								}
							}
						}
					}
				}
				JOINT RightShoulder
				{
					OFFSET 0.000000 0.000000 0.000000
					CHANNELS 3 Zrotation Yrotation Xrotation
					JOINT RightArm
					{
						OFFSET -3.136600 1.374050 -0.404650
						CHANNELS 3 Zrotation Yrotation Xrotation
						JOINT RightForeArm
						{
							OFFSET -5.241900 -0.000000 -0.000000
							CHANNELS 3 Zrotation Yrotation Xrotation
							JOINT RightHand
							{
								OFFSET -3.444170 -0.000000 -0.000000
								CHANNELS 3 Zrotation Yrotation Xrotation
								JOINT RightFingerBase
								{
									OFFSET 0.000000 0.000000 0.000000
									CHANNELS 3 Zrotation Yrotation Xrotation
									JOINT RightHandIndex1
									{
										OFFSET -0.622530 -0.000000 -0.000000
										CHANNELS 3 Zrotation Yrotation Xrotation
										End Site
										{
											OFFSET 0.000000 0.000000 0.000000
										}
									}
								}
								JOINT RThumb
								{
									OFFSET 0.000000 0.000000 0.000000
									CHANNELS 3 Zrotation Yrotation Xrotation
									End Site
									{
										OFFSET 0.000000 0.000000 0.000000
									}
								}
							}
						}
					}
				}
			}
		}
	}
}
MOTION
Frames: 11
Frame Time: 0.008333
4.339370 15.422085 -1.427435 -168.892919 80.794706 -142.971662 -12.387710 -2.243352 -4.877173 -6.085034 6.853554 -52.628928 2.111293 6.358011 87.936428 3.663647 19.657600 -24.790096 -5.551000 0.000000 -5.587100 8.279735 0.483165 -5.364782 15.642062 -9.375274 -51.568169 1.696860 -5.482527 64.511288 -2.320394 -4.392194 -28.601007 2.311400 0.000000 -51.767400 3.267806 -0.527017 13.074743 -0.207779 -0.397668 -0.602458 -5.611701 -0.427831 -1.445396 6.225180 -1.004837 -3.207925 -2.208197 -0.193703 0.762645 0.000000 0.000000 0.000000 -1.489242 8.832365 2.993533 -70.539701 18.159990 22.310552 -1.029767 -58.437429 -0.022674 10.977091 10.919546 1.065424 -0.129452 -0.004460 0.000000 0.000000 0.000000 0.000000 0.000000 0.000000 0.000000 4.065466 2.917282 -1.897366 74.918542 13.429458 9.490121 0.076887 83.746774 -0.095251 -14.835219 7.200666 -1.011352 0.177742 -0.468045 0.000000 0.000000 0.000000 0.000000 0.000000 0.000000 0.000000 
4.499324 15.474370 -1.473370 -169.611394 80.534271 -143.760939 -12.235033 -2.313710 -4.755037 -6.531253 6.594527 -53.414346 1.913753 6.262431 86.650340 3.687986 19.513115 -25.090947 -5.619200 0.000000 -4.997601 8.337422 0.445284 -5.450216 15.261663 -9.830942 -50.337057 1.752487 -5.392114 63.703774 -2.283914 -4.403557 -28.193808 2.261300 -0.000000 -53.175699 2.917933 -0.438272 13.051875 -0.250967 -0.308521 -0.631670 -5.496406 -0.333240 -1.553349 5.910166 -0.937663 -3.068576 -2.014728 -0.183609 0.807866 0.000000 0.000000 0.000000 -1.769710 8.986780 2.988454 -69.484688 20.137849 23.380668 -1.029428 -59.604497 -0.020345 10.399326 10.483719 0.969437 -0.126714 -0.009425 -0.000000 0.000000 0.000000 0.000000 0.000000 0.000000 0.000000 2.760464 3.122826 -2.075663 75.317123 14.747221 10.504477 0.073314 85.336620 -0.093710 -14.015251 7.369523 -0.978175 0.167871 -0.485316 -0.000000 0.000000 0.000000 0.000000 0.000000 0.000000 0.000000 
4.661152 15.534010 -1.522580 -170.255376 80.224635 -144.472983 -12.081379 -2.380078 -4.631548 -6.973042 6.332125 -54.137712 1.698389 6.153943 85.184985 3.694331 19.254327 -25.317459 -5.629200 0.000000 -4.584700 8.388682 0.400015 -5.519823 14.858321 -10.200462 -48.998991 1.803752 -5.280965 62.738505 -2.251353 -4.484292 -27.642398 2.211700 -0.000000 -54.401900 2.566574 -0.348283 13.020322 -0.295632 -0.215928 -0.662566 -5.391355 -0.234919 -1.658959 5.645152 -0.870240 -2.934909 -1.834862 -0.174347 0.851289 0.000000 0.000000 0.000000 -1.984769 9.219800 2.958941 -68.360820 22.081535 24.454575 -1.017830 -61.055335 -0.018352 9.916610 9.940522 0.876958 -0.125258 -0.012895 -0.000000 0.000000 0.000000 0.000000 0.000000 0.000000 0.000000 1.563512 3.322450 -2.246459 75.498957 15.923863 11.400610 0.071245 87.019993 -0.092343 -13.308281 7.482416 -0.943794 0.159938 -0.501488 -0.000000 0.000000 0.000000 0.000000 0.000000 0.000000 0.000000 
4.825658 15.600774 -1.575482 -170.823844 79.867070 -145.097856 -11.926371 -2.440619 -4.499892 -7.414093 6.058213 -54.799892 1.466139 6.029186 83.525560 3.682173 18.880762 -25.450941 -5.574400 0.000000 -4.455500 8.433992 0.346201 -5.567294 14.439973 -10.476375 -47.581419 1.847129 -5.151532 61.632770 -2.223073 -4.636884 -26.937374 2.160000 -0.000000 -55.457101 2.217726 -0.253680 12.963880 -0.342397 -0.116703 -0.697788 -5.301251 -0.129991 -1.757716 5.438139 -0.808344 -2.805081 -1.672500 -0.166216 0.893750 0.000000 0.000000 0.000000 -2.128008 9.510423 2.906466 -67.191459 23.960109 25.514658 -0.996325 -62.697142 -0.016618 9.515629 9.342809 0.791187 -0.124800 -0.015314 -0.000000 0.000000 0.000000 0.000000 0.000000 0.000000 0.000000 0.502040 3.510357 -2.405232 75.460384 16.954590 12.148373 0.069771 88.772949 -0.091059 -12.691573 7.556781 -0.909908 0.153772 -0.516727 -0.000000 0.000000 0.000000 0.000000 0.000000 0.000000 0.000000 
4.993051 15.673905 -1.631928 -171.352804 79.463371 -145.661402 -11.767373 -2.493705 -4.355743 -7.865673 5.760468 -55.402662 1.217461 5.884980 81.661838 3.654973 18.407062 -25.504797 -5.464200 -0.000000 -4.539100 8.476055 0.285463 -5.587222 14.005284 -10.650670 -46.120594 1.878041 -5.008399 60.417522 -2.199271 -4.862401 -26.072402 2.102000 -0.000000 -56.412600 1.866422 -0.151874 12.871153 -0.391083 -0.008625 -0.735683 -5.219485 -0.016190 -1.834898 5.276780 -0.771669 -2.690008 -1.521972 -0.158679 0.932293 0.000000 0.000000 0.000000 -2.160986 9.887120 2.836584 -66.020911 25.672626 26.594232 -0.968672 -64.402505 -0.015162 9.166659 8.755734 0.714720 -0.125272 -0.017129 -0.000000 0.000000 0.000000 0.000000 0.000000 0.000000 0.000000 -0.459983 3.668498 -2.555979 75.250166 17.842411 12.739236 -179.932084 89.452203 179.910080 -12.159530 7.631914 -0.881317 0.149131 -0.531544 -0.000000 0.000000 0.000000 0.000000 0.000000 0.000000 0.000000 
5.163878 15.753027 -1.692429 -171.840578 79.017036 -146.155273 -11.604629 -2.536889 -4.192919 -8.330250 5.430881 -55.943253 0.954346 5.718759 79.578484 3.616174 17.853309 -25.470767 -5.303100 0.000001 -4.875700 8.515304 0.217286 -5.578746 13.564421 -10.735907 -44.649874 1.894731 -4.856223 59.119805 -2.176210 -5.140841 -25.034381 2.026700 -0.000000 -57.356900 1.521561 -0.041776 12.731588 -0.440932 0.109052 -0.778885 -5.149251 0.106928 -1.891012 5.158906 -0.770928 -2.587435 -1.384620 -0.151866 0.967881 0.000000 0.000000 0.000000 -2.096768 10.310268 2.750729 -64.864357 27.228938 27.670478 -0.935089 -66.127563 -0.013923 8.856739 8.227768 0.649355 -0.126333 -0.018863 -0.000000 0.000000 0.000000 0.000000 0.000000 0.000000 0.000000 -1.317145 3.785362 -2.694560 74.894821 18.585969 13.170647 -179.935410 87.687291 179.911192 -11.686969 7.709042 -0.856519 0.145604 -0.545897 -0.000000 0.000000 0.000000 0.000000 0.000000 0.000000 0.000000 
5.338254 15.837419 -1.757235 -172.298645 78.530439 -146.584653 -11.437682 -2.568378 -4.007282 -8.810901 5.060289 -56.419665 0.679210 5.528663 77.265403 3.571403 17.248192 -25.357123 -5.104099 0.000000 -5.420900 8.553049 0.142447 -5.543115 13.123138 -10.747673 -43.204302 1.895766 -4.700525 57.772032 -2.149425 -5.448009 -23.810121 1.922301 0.000000 -58.410901 1.188082 0.076686 12.539975 -0.490529 0.235909 -0.827446 -5.087575 0.238851 -1.922291 5.071712 -0.821593 -2.501983 -1.256962 -0.145474 0.999361 0.000000 0.000000 0.000000 -1.935829 10.770238 2.652085 -63.744768 28.605692 28.746686 -0.896845 -67.822333 -0.012901 8.571049 7.799910 0.596291 -0.127800 -0.020919 -0.000000 0.000000 0.000000 0.000000 0.000000 0.000000 0.000000 -2.096495 3.845165 -2.821777 74.444631 19.188597 13.457999 -179.940710 85.971486 179.912275 -11.265101 7.794143 -0.835617 0.142876 -0.559802 -0.000000 0.000000 0.000000 0.000000 0.000000 0.000000 0.000000 
5.516122 15.926381 -1.826660 -172.730747 78.006628 -146.950265 -11.266868 -2.586318 -3.796070 -9.308042 4.643084 -56.827764 0.395177 5.313728 74.715281 3.526725 16.623427 -25.172331 -4.880400 0.000000 -6.124700 8.590387 0.061555 -5.485125 12.688164 -10.712422 -41.814003 1.881293 -4.546851 56.405391 -2.112650 -5.749941 -22.383810 1.776400 0.000000 -59.694000 0.873390 0.202224 12.296120 -0.538243 0.370151 -0.881643 -5.032935 0.377661 -1.929712 5.003902 -0.933636 -2.435477 -1.136885 -0.139325 1.026303 0.000000 0.000000 0.000000 -1.694005 11.247103 2.542552 -62.674407 29.809912 29.814180 -0.854428 -69.468499 -0.012088 8.302472 7.492188 0.555425 -0.129488 -0.023566 -0.000000 0.000000 0.000000 0.000000 0.000000 0.000000 0.000000 -2.817470 3.837045 -2.937167 73.943714 19.654944 13.626022 -179.947958 84.336607 179.913330 -10.888349 7.881792 -0.817412 0.140732 -0.573075 -0.000000 0.000000 0.000000 0.000000 0.000000 0.000000 0.000000 
5.697266 16.019130 -1.900963 -173.134847 77.448432 -147.250662 -11.093168 -2.589100 -3.558399 -9.820049 4.177764 -57.161550 0.105894 5.073836 71.925942 3.488080 16.010495 -24.926443 -4.645300 -0.000000 -6.918400 8.628347 -0.024718 -5.412051 12.264992 -10.662580 -40.502819 1.852624 -4.400387 55.048530 -2.059086 -6.008621 -20.739187 1.578800 0.000000 -61.304600 0.585038 0.332371 12.004654 -0.582450 0.508796 -0.941628 -4.984329 0.520279 -1.917750 4.945334 -1.111509 -2.387870 -1.022935 -0.133309 1.048731 0.000000 0.000000 0.000000 -1.397202 11.717237 2.422896 -61.657812 30.868407 30.855738 -0.807970 -71.070782 -0.011463 8.049048 7.302621 0.525457 -0.131252 -0.026881 -0.000000 0.000000 0.000000 0.000000 0.000000 0.000000 0.000000 -3.495715 3.755825 -3.039577 73.429879 19.991262 13.705711 -179.956672 82.806748 179.914335 -10.555801 7.960093 -0.801100 0.139088 -0.585410 -0.000000 0.000000 0.000000 0.000000 0.000000 0.000000 0.000000 
5.881266 16.114760 -1.980349 -173.509851 76.859272 -147.488240 -10.917762 -2.575377 -3.295343 -10.345071 3.666800 -57.415036 -0.184873 4.809636 68.901685 3.460903 15.438168 -24.631925 -4.410600 0.000000 -7.720800 8.668109 -0.115476 -5.333157 11.857878 -10.634339 -39.287763 1.811728 -4.265801 53.727239 -1.982491 -6.186679 -18.860204 1.324900 -0.000000 -63.311900 0.328280 0.463446 11.674909 -0.621730 0.647682 -1.006002 -4.939852 0.662553 -1.889073 4.887758 -1.354940 -2.361232 -0.914068 -0.127298 1.065904 0.000000 0.000000 0.000000 -1.064948 12.176018 2.294955 -60.699479 31.792479 31.865901 -0.757878 -72.632956 -0.011015 7.812522 7.209781 0.504185 -0.133039 -0.030689 -0.000000 0.000000 0.000000 0.000000 0.000000 0.000000 0.000000 -4.143254 3.601348 -3.129366 72.931850 20.209446 13.731223 -179.966047 81.397315 179.915259 -10.268856 8.017663 -0.785586 0.137954 -0.596486 -0.000000 0.000000 0.000000 0.000000 0.000000 0.000000 0.000000 
6.067644 16.212306 -2.064844 -173.855120 76.242422 -147.668851 -10.742116 -2.543985 -3.009822 -10.882486 3.117476 -57.581842 -0.473538 4.522235 65.653645 3.449410 14.929539 -24.300713 -4.185199 0.000000 -8.451499 8.710904 -0.209598 -5.258240 11.468545 -10.663158 -38.177627 1.760839 -4.146797 52.462790 -1.878638 -6.252401 -16.734367 1.018100 -0.000000 -65.742400 0.105784 0.591012 11.319264 -0.655367 0.782012 -1.073436 -4.898753 0.799717 -1.849049 4.826830 -1.655754 -2.354982 -0.810408 -0.121281 1.077770 0.000000 0.000000 0.000000 -0.720477 12.614734 2.160161 -59.800383 32.607967 32.827354 -0.704429 -74.171129 -0.010702 7.593754 7.175935 0.488412 -0.134782 -0.034613 -0.000000 0.000000 0.000000 0.000000 0.000000 0.000000 0.000000 -4.763453 3.381978 -3.205916 72.467122 20.320611 13.733211 -179.975352 80.114282 179.916078 -10.028945 8.043794 -0.770568 0.137402 -0.606011 -0.000000 0.000000 0.000000 0.000000 0.000000 0.000000 0.000000 
